<?xml version="1.0" encoding="iso-8859-1"?>
<!-- Generator: Adobe Illustrator 19.0.0, SVG Export Plug-In . SVG Version: 6.00 Build 0)  -->
<svg version="1.1" id="Capa_1" xmlns="http://www.w3.org/2000/svg" xmlns:xlink="http://www.w3.org/1999/xlink" x="0px" y="0px"
	 viewBox="0 0 512 512" style="enable-background:new 0 0 512 512;" xml:space="preserve">
<path style="fill:#E5E5E5;" d="M507.155,248.127c-0.934-1.518-23.361-37.597-65.254-73.904c-24.7-21.406-51.118-38.489-78.52-50.773
	c-34.522-15.475-70.65-23.322-107.38-23.322s-72.859,7.847-107.38,23.322c-27.401,12.284-53.819,29.366-78.52,50.773
	c-41.893,36.307-64.32,72.385-65.254,73.904L0,256.001l4.845,7.873c0.934,1.518,23.361,37.597,65.254,73.904
	c24.7,21.407,51.118,38.489,78.52,50.773c34.522,15.475,70.651,23.322,107.38,23.322s72.859-7.847,107.38-23.322
	c27.401-12.284,53.819-29.366,78.52-50.773c41.893-36.307,64.32-72.385,65.254-73.904l4.845-7.873L507.155,248.127z"/>
<path style="fill:#D6D6D6;" d="M507.155,248.127c-0.934-1.518-23.361-37.597-65.254-73.904c-24.7-21.406-51.118-38.489-78.52-50.773
	c-34.522-15.475-70.65-23.322-107.38-23.322v311.743c36.731,0,72.859-7.847,107.38-23.322c27.401-12.284,53.819-29.366,78.52-50.773
	c41.893-36.307,64.32-72.385,65.254-73.904L512,256L507.155,248.127z"/>
<path style="fill:#DE7300;" d="M507.155,248.127c-0.934-1.518-23.361-37.597-65.254-73.904c-3.51-3.042-7.059-5.987-10.636-8.852
	v181.258c3.577-2.865,7.126-5.811,10.636-8.852c41.893-36.307,64.32-72.385,65.254-73.904L512,256L507.155,248.127z"/>
<g>
	<path style="fill:#FF9900;" d="M70.099,174.223c-41.893,36.307-64.32,72.385-65.254,73.904L0,256.001l4.845,7.873
		c0.934,1.518,23.361,37.597,65.254,73.904c3.51,3.042,7.059,5.987,10.636,8.852V165.372
		C77.158,168.237,73.609,171.181,70.099,174.223z"/>
	<path style="fill:#FF9900;" d="M363.38,123.45c-34.522-15.475-70.65-23.322-107.38-23.322s-72.859,7.847-107.38,23.322
		c-12.856,5.763-25.492,12.596-37.839,20.423v224.254c12.348,7.827,24.983,14.66,37.839,20.423
		c34.522,15.475,70.651,23.322,107.38,23.322s72.859-7.847,107.38-23.322c12.856-5.763,25.492-12.596,37.839-20.423V143.873
		C388.872,136.046,376.237,129.214,363.38,123.45z M365.776,271.023h-30.179v35.913h-30.045v-35.913h-34.529v35.913h-30.045v-35.913
		h-34.529v35.913h-30.045v-35.913h-30.179v-30.045h30.179v-35.913h30.045v35.913h34.529v-35.913h30.045v35.913h34.529v-35.913
		h30.045v35.913h30.179V271.023z"/>
</g>
<path style="fill:#DE7300;" d="M363.38,123.45c-34.522-15.475-70.65-23.322-107.38-23.322v104.936h15.023v35.913h34.529v-35.913
	h30.045v35.913h30.179v30.045h-30.179v35.913h-30.045v-35.913h-34.529v35.913H256v104.936c36.73,0,72.859-7.847,107.38-23.322
	c12.856-5.763,25.492-12.596,37.839-20.423V143.873C388.872,136.046,376.237,129.214,363.38,123.45z"/>
<g>
</g>
<g>
</g>
<g>
</g>
<g>
</g>
<g>
</g>
<g>
</g>
<g>
</g>
<g>
</g>
<g>
</g>
<g>
</g>
<g>
</g>
<g>
</g>
<g>
</g>
<g>
</g>
<g>
</g>
</svg>
